<?xml version="1.0" encoding="utf-8"?>
<!-- Generator: Adobe Illustrator 19.2.1, SVG Export Plug-In . SVG Version: 6.00 Build 0)  -->
<svg version="1.1" id="Layer_1" xmlns="http://www.w3.org/2000/svg" xmlns:xlink="http://www.w3.org/1999/xlink" x="0px" y="0px"
	 viewBox="0 0 457.2 210.6" style="enable-background:new 0 0 457.2 210.6;" xml:space="preserve">
<style type="text/css">
	.st0{fill:#FFFFFF;}
	.st1{fill:#2F2933;}
	.st2{fill:none;stroke:#000000;stroke-miterlimit:10;}
</style>
<rect class="st0" width="457.2" height="210.6"/>
<g>
	<g>
		<path class="st1" d="M191,58.2v38h14.1c10.8,0,18.2-7.8,18.2-19c0-11.3-7.3-19-17.9-19H191z M199.6,65.9h5.7
			c5.4,0,9.4,4.6,9.4,11.3c0,6.7-3.7,11.2-9,11.2h-6.1V65.9z"/>
		<path class="st1" d="M257.6,65.8v-7.6h-26.3v38h26.8v-7.6h-18.3V81h16v-7.6h-16v-7.5H257.6z"/>
		<path class="st1" d="M298,96.2v-38h-8v23.5l-15.5-23.5H267v38h8V72.8l15.5,23.4H298z"/>
		<path class="st1" d="M333,66v-7.8h-28.7V66h10v30.2h8.5V66H333z"/>
		<path class="st1" d="M354.9,57.9c-10.4,0-18.2,8.2-18.2,19.3c0,11.1,7.8,19.5,18.2,19.5c10.4,0,18.2-8.4,18.2-19.5
			C373.1,66.1,365.4,57.9,354.9,57.9z M355,66c5.2,0,9.3,4.8,9.3,11.2c0,6.4-4.1,11.3-9.3,11.3c-5.1,0-9.5-4.9-9.5-11.3
			C345.5,70.8,349.8,66,355,66z"/>
		<path class="st1" d="M412.1,96.2v-38h-8v23.5l-15.5-23.5H381v38h8V72.8l15.5,23.4H412.1z"/>
		<path class="st1" d="M191,117.2v38h16.5c7.9,0,12.9-4.1,12.9-10.5c0-4.9-2.7-8.7-6.9-9.6c3.6-1.1,5.8-4.3,5.8-8.4
			c0-5.8-4.8-9.5-12.3-9.5H191z M199.5,124.6h6.9c2.5,0,4.1,1.4,4.1,3.9c0,2.4-1.6,4-4.1,4h-6.9V124.6z M199.5,139.4h6.9
			c3.2,0,5.1,1.6,5.1,4.1c0,2.7-2,4.3-5.1,4.3h-6.9V139.4z"/>
		<path class="st1" d="M237.3,147.1v-29.9h-8.5v38h22.8v-8.1H237.3z"/>
		<path class="st1" d="M266.6,155.2v-38H258v38H266.6z"/>
		<path class="st1" d="M307.5,155.2v-38h-8v23.5l-15.5-23.5h-7.5v38h8v-23.4l15.5,23.4H307.5z"/>
		<path class="st1" d="M317.6,117.2v38h14.1c10.8,0,18.2-7.8,18.2-19c0-11.3-7.3-19-17.9-19H317.6z M326.1,124.9h5.7
			c5.4,0,9.4,4.6,9.4,11.3c0,6.7-3.7,11.2-9,11.2h-6.1V124.9z"/>
		<path class="st1" d="M370.2,116.8c-8.1,0-13.4,4.5-13.4,11.5c0,13.5,17.8,9.4,17.8,16.2c0,2.2-1.7,3.3-4.4,3.3
			c-3.5,0-8.7-2.3-12.2-5.7l-3.3,7.4c4,3.7,9.7,6.1,15.4,6.1c7.5,0,13.4-4,13.4-11.6c0-13.7-17.8-10-17.8-16.6
			c0-1.8,1.5-2.8,3.7-2.8c2.7,0,7.2,1.6,10.8,4l3.2-7.5C380,118.4,375.1,116.8,370.2,116.8z"/>
	</g>
	<line class="st2" x1="56" y1="53.5" x2="56" y2="173.3"/>
	<line class="st2" x1="60" y1="50.5" x2="60" y2="167.3"/>
	<g>
		<path class="st1" d="M102,48.5H54c-1.6,0-3,1-3.6,2.4v4.9H134C124.9,51.2,114,48.7,102,48.5z"/>
		<path d="M50,61.5v3.2h0.4v-4.9C50.1,60.4,50,60.9,50,61.5z"/>
		<path class="st1" d="M50.4,59.9v4.9h96.5c-2.9-2.8-6.1-5.2-9.7-7.2H54C52.4,57.5,51,58.5,50.4,59.9z"/>
		<path d="M50,70.5v3.2h0.4v-4.9C50.1,69.4,50,69.9,50,70.5z"/>
		<path class="st1" d="M50.4,68.9v4.9h104c-1.7-2.6-3.6-5-5.7-7.2H54C52.4,66.5,51,67.5,50.4,68.9z"/>
		<path d="M50,79.5v3.2h0.4v-4.9C50.1,78.4,50,78.9,50,79.5z"/>
		<path class="st1" d="M50.4,77.9v4.9h34.2v-4.5H101c6.9,0,12.5,1.6,16.7,4.5h41.2c-1-2.5-2.2-5-3.5-7.2H54
			C52.4,75.5,51,76.5,50.4,77.9z"/>
		<path d="M50,88.5v3.2h0.4v-4.9C50.1,87.4,50,87.9,50,88.5z"/>
		<path class="st1" d="M84.6,84.5H54c-1.6,0-3,1-3.6,2.4v4.9h34.2V84.5z"/>
		<path class="st1" d="M120,84.5c2.3,2,4.1,4.5,5.4,7.2h36.1c-0.5-2.5-1.2-4.9-2-7.2c-0.2,0-0.5-0.1-0.8-0.1H120z"/>
		<path d="M50,97.5v3.2h0.4v-4.9C50.1,96.4,50,96.9,50,97.5z"/>
		<path class="st1" d="M158.8,93.5h-32.7c0.9,2.2,1.4,4.7,1.7,7.2h34.8c-0.1-1.9-0.3-3.7-0.5-5.4C161.4,94.2,160.2,93.5,158.8,93.5z
			"/>
		<path class="st1" d="M84.6,93.5H54c-1.6,0-3,1-3.6,2.4v4.9h34.2V93.5z"/>
		<path d="M162.8,109.8v-3.2c0-0.1,0-0.2,0-0.3c0,1.2-0.1,2.4-0.2,3.6H162.8z"/>
		<path d="M50,106.5v3.2h0.4v-4.9C50.1,105.4,50,105.9,50,106.5z"/>
		<path class="st1" d="M158.8,102.5H128c0,0.8,0.1,1.6,0.1,2.4c0,1.7-0.1,3.3-0.4,4.9h34.9c0.1-1.2,0.1-2.4,0.2-3.6
			C162.6,104.2,160.9,102.5,158.8,102.5z"/>
		<path class="st1" d="M84.6,102.5H54c-1.6,0-3,1-3.6,2.4v4.9h34.2V102.5z"/>
		<path d="M50,115.5v3.2h0.4v-4.9C50.1,114.4,50,114.9,50,115.5z"/>
		<path class="st1" d="M158.8,111.5h-31.5c-0.6,2.6-1.6,5-2.9,7.2h36.9c0.4-1.7,0.7-3.5,0.9-5.2
			C161.5,112.3,160.3,111.5,158.8,111.5z"/>
		<path class="st1" d="M84.6,111.5H54c-1.6,0-3,1-3.6,2.4v4.9h34.2V111.5z"/>
		<path d="M50,124.5v3.2h0.4v-4.9C50.1,123.4,50,123.9,50,124.5z"/>
		<path class="st1" d="M123.4,120.5c-2,2.9-4.6,5.4-7.7,7.2h42.9c0.9-2.1,1.6-4.4,2.2-6.7c-0.6-0.3-1.3-0.6-2-0.6H123.4z"/>
		<path class="st1" d="M84.6,120.5H54c-1.6,0-3,1-3.6,2.4v4.9h34.2V120.5z"/>
		<path d="M50,133.5v3.2h0.4v-4.9C50.1,132.4,50,132.9,50,133.5z"/>
		<path class="st1" d="M100.8,131.7H84.6v-2.1H54c-1.6,0-3,1-3.6,2.4v4.9h103.5c1.5-2.3,2.8-4.7,4-7.2h-45.7
			C108.8,130.9,105,131.7,100.8,131.7z"/>
		<path d="M50,142.5v3.2h0.4v-4.9C50.1,141.4,50,141.9,50,142.5z"/>
		<path class="st1" d="M50.4,140.9v4.9h95.8c2.4-2.2,4.6-4.6,6.5-7.2H54C52.4,138.5,51,139.5,50.4,140.9z"/>
		<path d="M50,151.5v3.2h0.4v-4.9C50.1,150.4,50,150.9,50,151.5z"/>
		<path class="st1" d="M50.4,149.9v4.9h82.4c4.2-2,8-4.4,11.4-7.2H54C52.4,147.5,51,148.5,50.4,149.9z"/>
		<path class="st1" d="M50.4,158.9v2.6H101c10.1,0,19.5-1.7,27.7-4.9H54C52.4,156.5,51,157.5,50.4,158.9z"/>
	</g>
	<rect x="55" y="173.3" width="2" height="3.2"/>
	<rect x="59" y="167.3" width="2" height="3.2"/>
</g>
</svg>
